# xmcd
#
# Track frame offsets:
#	150
#	22277
#	41147
#	68669
#	90316
#	122282
#	138942
#	159611
#
# Disc length: 2441 seconds
#
# Revision: 1
# Processed by: cddbd v1.5.2PL0 Copyright (c) Steve Scherf et al.
# Submitted via: audiograbber 1.83.01
#
DISCID=62098708
DTITLE=Paul Pena - Paul Pena
DYEAR=1972
DGENRE=R&B
TTITLE0=Woke Up This Morning
TTITLE1=I'm Gonna Make It Alright
TTITLE2=The River
TTITLE3=One For The Lonely
TTITLE4=Something To Make You Happy
TTITLE5=My Adorable One
TTITLE6=When I'm Gone
TTITLE7=Lullaby
EXTD=
EXTT0=
EXTT1=
EXTT2=
EXTT3=
EXTT4=
EXTT5=
EXTT6=
EXTT7=
PLAYORDER=
